<svg xmlns="http://www.w3.org/2000/svg" enable-background="new 0 0 512 512" viewBox="0 0 512 512"><path fill="#82ea4b" d="M410.39 389.49l4.83 8.84.7 1.28 1.28.7 8.84 4.83-8.84 4.83-1.28.7-.7 1.28-4.83 8.84-4.83-8.84-.7-1.28-1.28-.7-8.84-4.83 8.84-4.83 1.28-.7.7-1.28L410.39 389.49M410.39 379.07l-9.22 16.86-16.86 9.22 16.86 9.22 9.22 16.86 9.22-16.86 16.86-9.22-16.86-9.22L410.39 379.07 410.39 379.07zM441.17 357.85l2.11 3.86.7 1.28 1.28.7 3.86 2.11-3.86 2.11-1.28.7-.7 1.28-2.11 3.86-2.11-3.86-.7-1.28-1.28-.7-3.86-2.11 3.86-2.11 1.28-.7.7-1.28L441.17 357.85M441.17 347.43l-6.5 11.88-11.88 6.5 11.88 6.5 6.5 11.88 6.5-11.88 11.88-6.5-11.88-6.5L441.17 347.43 441.17 347.43zM51.28 141.54l4.83 8.84.7 1.28 1.28.7 8.84 4.83-8.84 4.83-1.28.7-.7 1.28-4.83 8.84-4.83-8.84-.7-1.28-1.28-.7-8.84-4.83 8.84-4.83 1.28-.7.7-1.28L51.28 141.54M51.28 131.11l-9.22 16.86-16.86 9.22 16.86 9.22 9.22 16.86 9.22-16.86 16.86-9.22-16.86-9.22L51.28 131.11 51.28 131.11zM82.06 97.07l2.11 3.86.7 1.28 1.28.7 3.86 2.11-3.86 2.11-1.28.7-.7 1.28-2.11 3.86-2.11-3.86-.7-1.28-1.28-.7-3.86-2.11 3.86-2.11 1.28-.7.7-1.28L82.06 97.07M82.06 86.65l-6.5 11.88-11.88 6.5 11.88 6.5 6.5 11.88 6.5-11.88 11.88-6.5-11.88-6.5L82.06 86.65 82.06 86.65zM448.86 85.96l4.83 8.84.7 1.28 1.28.7 8.84 4.83-8.84 4.83-1.28.7-.7 1.28-4.83 8.84-4.83-8.84-.7-1.28-1.28-.7-8.84-4.83 8.84-4.83 1.28-.7.7-1.28L448.86 85.96M448.86 75.54l-9.22 16.86-16.86 9.22 16.86 9.22 9.22 16.86 9.22-16.86 16.86-9.22-16.86-9.22L448.86 75.54 448.86 75.54zM466.82 139.82l2.11 3.86.7 1.28 1.28.7 3.86 2.11-3.86 2.11-1.28.7-.7 1.28-2.11 3.86-2.11-3.86-.7-1.28-1.28-.7-3.86-2.11 3.86-2.11 1.28-.7.7-1.28L466.82 139.82M466.82 129.4l-6.5 11.88-11.88 6.5 11.88 6.5 6.5 11.88 6.5-11.88 11.88-6.5-11.88-6.5L466.82 129.4 466.82 129.4zM402.69 75.7l2.11 3.86.7 1.28 1.28.7 3.86 2.11-3.86 2.11-1.28.7-.7 1.28-2.11 3.86-2.11-3.86-.7-1.28-1.28-.7-3.86-2.11 3.86-2.11 1.28-.7.7-1.28L402.69 75.7M402.69 65.28l-6.5 11.88-11.88 6.5 11.88 6.5 6.5 11.88 6.5-11.88 11.88-6.5-11.88-6.5L402.69 65.28 402.69 65.28zM81.2 393.77l4.83 8.84.7 1.28 1.28.7 8.84 4.83-8.84 4.83-1.28.7-.7 1.28-4.83 8.84-4.83-8.84-.7-1.28-1.28-.7-8.84-4.83 8.84-4.83 1.28-.7.7-1.28L81.2 393.77M81.2 383.35l-9.22 16.86-16.86 9.22 16.86 9.22 9.22 16.86 9.22-16.86 16.86-9.22-16.86-9.22L81.2 383.35 81.2 383.35zM129.08 421.98l2.11 3.86.7 1.28 1.28.7 3.86 2.11-3.86 2.11-1.28.7-.7 1.28-2.11 3.86-2.11-3.86-.7-1.28-1.28-.7-3.86-2.11 3.86-2.11 1.28-.7.7-1.28L129.08 421.98M129.08 411.56l-6.5 11.88-11.88 6.5 11.88 6.5 6.5 11.88 6.5-11.88 11.88-6.5-11.88-6.5L129.08 411.56 129.08 411.56zM64.96 357.85l2.11 3.86.7 1.28 1.28.7 3.86 2.11-3.86 2.11-1.28.7-.7 1.28-2.11 3.86-2.11-3.86-.7-1.28-1.28-.7L57 365.82l3.86-2.11 1.28-.7.7-1.28L64.96 357.85M64.96 347.43l-6.5 11.88-11.88 6.5 11.88 6.5 6.5 11.88 6.5-11.88 11.88-6.5-11.88-6.5L64.96 347.43 64.96 347.43z"/><circle cx="256.87" cy="251.98" r="182.9" fill="#a1f27c"/><path fill="#82ea4b" d="M256.87,71.58c24.36,0,47.98,4.77,70.22,14.18c21.48,9.09,40.78,22.09,57.35,38.66
			c16.57,16.57,29.58,35.86,38.66,57.35c9.41,22.24,14.17,45.86,14.17,70.22s-4.77,47.98-14.17,70.22
			c-9.09,21.48-22.09,40.78-38.66,57.35c-16.57,16.57-35.86,29.58-57.35,38.66c-22.24,9.41-45.86,14.17-70.22,14.17
			s-47.98-4.77-70.22-14.17c-21.48-9.09-40.78-22.09-57.35-38.66c-16.57-16.57-29.58-35.86-38.66-57.35
			c-9.41-22.24-14.18-45.86-14.18-70.22s4.77-47.98,14.18-70.22c9.09-21.48,22.09-40.78,38.66-57.35
			c16.57-16.57,35.86-29.58,57.35-38.66C208.89,76.35,232.52,71.58,256.87,71.58 M256.87,66.58c-102.4,0-185.4,83.01-185.4,185.4
			s83.01,185.4,185.4,185.4s185.4-83.01,185.4-185.4S359.27,66.58,256.87,66.58L256.87,66.58z"/><path fill="#82ea4b" d="M256.87,71.58c24.36,0,47.98,4.77,70.22,14.18c21.48,9.09,40.78,22.09,57.35,38.66
			c16.57,16.57,29.58,35.86,38.66,57.35c9.41,22.24,14.17,45.86,14.17,70.22s-4.77,47.98-14.17,70.22
			c-9.09,21.48-22.09,40.78-38.66,57.35c-16.57,16.57-35.86,29.58-57.35,38.66c-22.24,9.41-45.86,14.17-70.22,14.17
			s-47.98-4.77-70.22-14.17c-21.48-9.09-40.78-22.09-57.35-38.66c-16.57-16.57-29.58-35.86-38.66-57.35
			c-9.41-22.24-14.18-45.86-14.18-70.22s4.77-47.98,14.18-70.22c9.09-21.48,22.09-40.78,38.66-57.35
			c16.57-16.57,35.86-29.58,57.35-38.66C208.89,76.35,232.52,71.58,256.87,71.58 M256.87,66.58c-102.4,0-185.4,83.01-185.4,185.4
			s83.01,185.4,185.4,185.4s185.4-83.01,185.4-185.4S359.27,66.58,256.87,66.58L256.87,66.58z"/><circle cx="256.87" cy="251.98" r="185.4" fill="#b8efac" opacity=".4"/><path fill="#39b54a" stroke="#1b5629" stroke-linecap="round" stroke-linejoin="round" stroke-miterlimit="10" stroke-width="5" d="M258.5,378.23h0.41c78.01,0,102.04-67.69,102.04-67.69V164.19c-82,0.31-102.23-30-102.23-30
		s-20.23,30.31-102.23,30v146.36c0,0,24.03,67.69,102.04,67.69h0.41H258.5z"/><line x1="258.56" x2="258.93" y1="364.42" y2="364.42" fill="#1b5629"/><line x1="258.56" x2="258.93" y1="364.42" y2="364.42" fill="#1b5629"/><path fill="#33a03d" d="M258.73 148c0 0-17.94 26.88-90.66 26.6v78.22h90.5L258.73 148zM260.56 366.42h.37-.4.37c69.18 0 90.5-60.03 90.5-60.03v-52.41h-90.86v112.44"/><path fill="#1b5629" d="M292.74,319h-68.89c-8.59,0-15.55-6.96-15.55-15.55v-55.89c0-8.59,6.96-15.55,15.55-15.55h68.89
		c8.59,0,15.55,6.96,15.55,15.55v55.89C308.3,312.04,301.33,319,292.74,319z"/><path fill="#39b54a" d="M264.62,283.05l-3.51-6.07c5.08-1.26,8.85-5.84,8.85-11.31c0-6.44-5.22-11.67-11.67-11.67
		c-6.44,0-11.67,5.22-11.67,11.67c0,5.47,3.77,10.05,8.85,11.31l-3.51,6.07L245.65,294h12.64h12.64L264.62,283.05z"/><path fill="#1b5629" d="M258.3,203c18.47,0,33.5,15.03,33.5,33.5h10c0-24.02-19.48-43.5-43.5-43.5l0,0c-24.02,0-43.5,19.48-43.5,43.5
		h10C224.8,218.03,239.82,203,258.3,203"/><g><path fill="#73ff99" stroke="#1b5629" stroke-miterlimit="10" stroke-width="3.045" d="M275.31,369.73c-2.22,0-4.49-0.57-6.59-1.75c-2-1.12-3.57-2.87-4.73-4.85l-24.8-42.17
		c-3.17-5.39-2.48-12.47,2.18-16.64c6.36-5.69,15.91-3.94,20.01,3.02l17.28,29.37l93.49-80.14c4.75-4.07,11.84-4.63,16.77-0.77
		c6.72,5.26,6.67,14.97,0.54,20.22L283.78,366.6C281.41,368.63,278.4,369.73,275.31,369.73z"/></g></svg>